<svg width="185" height="46" viewBox="0 0 185 46" fill="none" xmlns="http://www.w3.org/2000/svg">
<path d="M6.20023 22.5135C7.65192 21.6804 15.0618 14.7754 18.5863 11.458C19.0584 11.0136 18.6115 10.236 17.9904 10.4203C13.3501 11.7988 3.65537 14.7325 2.20621 15.5656C0.287456 16.6689 -0.374008 19.1178 0.729273 21.0366C1.83255 22.9553 4.28149 23.6168 6.20023 22.5135Z" fill="#00A9C5"/>
<path d="M39.0035 21.8191C37.5518 22.6523 30.1419 29.5572 26.6175 32.8746C26.1453 33.319 26.5922 34.0966 27.2133 33.9123C31.8536 32.5338 41.5484 29.6002 42.9975 28.767C44.9163 27.6637 45.5777 25.2148 44.4745 23.2961C43.3712 21.3773 40.9222 20.7158 39.0035 21.8191Z" fill="#FF6242"/>
<path d="M22.9261 39.0631C22.093 37.6114 15.1855 30.2015 11.8706 26.677C11.4262 26.2049 10.6486 26.6518 10.8329 27.2729C12.2114 31.9132 15.1451 41.6079 15.9782 43.0571C17.0815 44.9758 19.5304 45.6348 21.4492 44.534C23.3679 43.4307 24.0294 40.9818 22.9261 39.0631Z" fill="#184068"/>
<path d="M22.2293 6.38857C23.0624 7.84025 29.9699 15.2502 33.2848 18.7746C33.7291 19.2467 34.5067 18.7998 34.3224 18.1788C32.944 13.5384 30.0103 3.8437 29.1772 2.39454C28.0739 0.475788 25.625 -0.183152 23.7062 0.917604C21.7875 2.02089 21.126 4.46982 22.2293 6.38857Z" fill="#FFCF32"/>
<path d="M5.76632 36.7377C7.90384 36.7377 9.63664 35.0049 9.63664 32.8674C9.63664 30.7299 7.90384 28.9971 5.76632 28.9971C3.6288 28.9971 1.896 30.7299 1.896 32.8674C1.896 35.0049 3.6288 36.7377 5.76632 36.7377Z" fill="#00A9C5"/>
<path d="M12.5847 9.17277C14.7222 9.17277 16.455 7.43997 16.455 5.30245C16.455 3.16493 14.7222 1.43213 12.5847 1.43213C10.4472 1.43213 8.71436 3.16493 8.71436 5.30245C8.71436 7.43997 10.4472 9.17277 12.5847 9.17277Z" fill="#FFCF32"/>
<path d="M39.5085 16.4667C41.646 16.4667 43.3788 14.7339 43.3788 12.5964C43.3788 10.4589 41.646 8.72607 39.5085 8.72607C37.371 8.72607 35.6382 10.4589 35.6382 12.5964C35.6382 14.7339 37.371 16.4667 39.5085 16.4667Z" fill="#FF6242"/>
<path d="M32.7424 43.1576C34.8799 43.1576 36.6127 41.4248 36.6127 39.2873C36.6127 37.1498 34.8799 35.417 32.7424 35.417C30.6049 35.417 28.8721 37.1498 28.8721 39.2873C28.8721 41.4248 30.6049 43.1576 32.7424 43.1576Z" fill="#184068"/>
<path d="M60.5275 15.5024C62.681 15.5024 64.1983 16.1639 65.1098 16.7724C65.8823 17.2697 65.9378 18.0423 65.4405 18.8426L64.9709 19.5596C64.4458 20.4155 63.8121 20.4432 62.9284 20.0014C62.3755 19.7262 61.6585 19.4763 60.8304 19.4763C58.5658 19.4763 57.4348 21.188 57.4348 22.872C57.4348 24.5559 58.5936 26.4065 60.9945 26.4065C61.9337 26.4065 62.8729 26.0202 63.5621 25.6062C64.4735 25.1088 65.1628 25.2199 65.6324 26.1313L65.9909 26.8205C66.4049 27.6486 66.3216 28.3934 65.5768 28.8908C64.5821 29.5522 62.8729 30.3803 60.525 30.3803C55.4453 30.3803 52.6025 26.8458 52.6025 22.9275C52.6025 19.0092 55.4175 15.5024 60.525 15.5024H60.5275Z" fill="#184068"/>
<path d="M74.9949 15.5024C79.4939 15.5024 83.084 18.5118 83.084 22.983C83.084 27.4542 79.4964 30.3803 75.0227 30.3803C70.549 30.3803 66.9614 27.4265 66.9614 22.983C66.9614 18.5396 70.549 15.5024 74.9949 15.5024ZM75.0227 26.4065C76.7622 26.4065 78.2518 25.1088 78.2518 22.983C78.2518 20.8573 76.7622 19.4763 75.0227 19.4763C73.2832 19.4763 71.7936 20.8295 71.7936 22.983C71.7936 25.1366 73.2832 26.4065 75.0227 26.4065Z" fill="#184068"/>
<path d="M85.0962 17.3506C85.0962 16.3559 85.6213 15.8333 86.6135 15.8333H88.1586C89.1533 15.8333 89.6482 16.3584 89.6482 17.3506V17.598C89.6482 17.7369 89.6204 17.9565 89.6204 17.9565H89.6759C90.3374 16.9618 91.6629 15.5 93.8997 15.5C95.6948 15.5 97.1288 16.3003 97.8736 17.901H97.9291C98.6739 16.7144 100.358 15.5 102.484 15.5C105.079 15.5 107.094 16.9088 107.094 20.8271V28.5298C107.094 29.5245 106.569 30.0472 105.576 30.0472H103.837C102.842 30.0472 102.319 29.522 102.319 28.5298V21.6299C102.319 20.5822 102.125 19.8349 101.216 19.8349C99.146 19.8349 98.4845 21.9051 98.4845 24.0309V28.5298C98.4845 29.5245 97.9594 30.0472 96.9672 30.0472H95.2277C94.233 30.0472 93.7104 29.522 93.7104 28.5298V21.6299C93.7104 20.5822 93.516 19.8349 92.6071 19.8349C90.4258 19.8349 89.8754 22.0717 89.8754 24.0309V28.5298C89.8754 29.5245 89.3503 30.0472 88.3581 30.0472H86.6186C85.6238 30.0472 85.1012 29.522 85.1012 28.5298V17.3506H85.0962Z" fill="#184068"/>
<path d="M110.547 19.807H110.188C109.194 19.807 108.671 19.2818 108.671 18.2896V17.6004C108.671 16.6057 109.196 16.0831 110.188 16.0831H110.547V15.3938C110.547 10.8671 115.018 10.2031 116.51 10.2031H116.98C117.974 10.2031 118.497 10.7283 118.497 11.7205V12.7429C118.497 13.7377 117.972 14.1795 116.98 14.2603C116.371 14.3158 115.323 14.4269 115.323 15.6413V16.0831H116.427C117.421 16.0831 117.944 16.6082 117.944 17.6004V18.2896C117.944 19.2844 117.419 19.807 116.427 19.807H115.323V28.5297C115.323 29.5244 114.798 30.047 113.806 30.047H112.067C111.072 30.047 110.549 29.5219 110.549 28.5297V19.807H110.547Z" fill="#184068"/>
<path d="M125.793 15.2653C128.664 15.2653 129.52 16.6741 129.52 16.6741C129.52 16.6741 129.54 16.7094 129.573 16.7498C129.687 15.9848 130.197 15.5809 131.068 15.5809H132.807C133.802 15.5809 134.324 16.106 134.324 17.0982V28.2926C134.324 29.2873 133.799 29.8099 132.807 29.8099H131.37C130.376 29.8099 129.853 29.3403 129.853 28.4289V28.2623C129.853 28.2068 129.881 28.0679 129.881 28.0679H129.825C129.825 28.0679 128.639 30.1381 125.713 30.1381C121.847 30.1381 119.308 27.101 119.308 22.6853C119.308 18.2697 122.012 15.2603 125.793 15.2603V15.2653ZM126.897 26.1971C128.333 26.1971 129.684 25.1494 129.684 22.6904C129.684 20.9786 128.773 19.2947 126.897 19.2947C125.407 19.2947 124.11 20.509 124.11 22.6904C124.11 24.8717 125.241 26.1971 126.897 26.1971Z" fill="#184068"/>
<path d="M137.044 11.5515C137.044 10.5568 137.57 10.0342 138.562 10.0342H140.301C141.296 10.0342 141.819 10.5593 141.819 11.5515V15.8031C141.819 16.5201 141.763 17.0174 141.763 17.0174H141.819C141.819 17.0174 143.088 15.2224 145.739 15.2224C149.466 15.2224 152.061 18.2596 152.061 22.5919C152.061 27.1742 149.191 30.1003 145.52 30.1003C142.51 30.1003 141.463 28.1133 141.463 28.1133H141.407C141.407 28.1133 141.435 28.2244 141.435 28.3885V28.4996C141.435 29.2444 140.91 29.7695 139.918 29.7695H138.564C137.57 29.7695 137.047 29.2444 137.047 28.2522V11.5515H137.044ZM144.414 26.1542C145.987 26.1542 147.257 24.9398 147.257 22.7307C147.257 20.6605 146.126 19.2518 144.497 19.2518C143.035 19.2518 141.682 20.355 141.682 22.6197C141.682 24.5233 142.621 26.1542 144.414 26.1542Z" fill="#184068"/>
<path d="M161.362 15.2246C165.861 15.2246 169.451 18.234 169.451 22.7052C169.451 27.1764 165.863 30.1025 161.389 30.1025C156.916 30.1025 153.328 27.1486 153.328 22.7052C153.328 18.2618 156.916 15.2246 161.362 15.2246ZM161.389 26.1287C163.129 26.1287 164.618 24.831 164.618 22.7052C164.618 20.5794 163.129 19.1984 161.389 19.1984C159.65 19.1984 158.16 20.5517 158.16 22.7052C158.16 24.8588 159.65 26.1287 161.389 26.1287Z" fill="#184068"/>
<path d="M172.182 31.5368C172.402 31.5924 172.68 31.6757 173.01 31.6757C173.866 31.6757 174.639 30.9865 174.97 30.1584L175.245 29.4969L169.973 17.3229C169.504 16.2752 169.973 15.5557 171.132 15.5557H173.286C174.197 15.5557 174.747 15.9697 175.025 16.7978L176.709 22.0971C176.956 22.8696 177.234 24.3062 177.234 24.3062H177.29C177.29 24.3062 177.565 22.953 177.759 22.1804L179.196 16.8533C179.443 15.9697 179.996 15.5557 180.908 15.5557H182.922C184.026 15.5557 184.523 16.2449 184.137 17.2952L178.946 31.2894C177.759 34.4629 175.275 35.5687 173.01 35.5687C172.266 35.5687 171.574 35.4021 171.023 35.2102C170.112 34.9073 169.892 34.1069 170.279 33.2233L170.637 32.423C171.023 31.5671 171.604 31.4283 172.182 31.5394V31.5368Z" fill="#184068"/>
</svg>
